<svg width="54" height="24" viewBox="0 0 54 24" fill="none" xmlns="http://www.w3.org/2000/svg">
<path d="M20.5025 0.307368L13.4325 17.1406H8.82014L5.34094 3.70611C5.13 2.88063 4.9467 2.57684 4.30481 2.22779C3.25561 1.65895 1.52297 1.12695 0 0.796L0.102727 0.307368H7.52857C8.47357 0.307368 9.32449 0.935368 9.54091 2.02274L11.3792 11.7644L15.9178 0.307368H20.5025ZM26.7378 0.307368L23.1301 17.1406H18.7663L22.3744 0.307368H26.7378ZM38.5748 11.6446C38.5929 7.20274 32.4209 6.95621 32.4612 4.97158C32.4759 4.36821 33.0518 3.72589 34.3124 3.56168C34.9367 3.48105 36.6618 3.41684 38.6157 4.31537L39.3801 0.743579C38.3303 0.364632 36.9792 0 35.2987 0C30.985 0 27.9507 2.28674 27.9264 5.56379C27.8982 7.98779 30.0938 9.33874 31.745 10.1461C33.4458 10.9705 34.0162 11.5004 34.0084 12.2373C33.9962 13.3667 32.65 13.8667 31.3985 13.8853C29.2039 13.92 27.9317 13.2933 26.9169 12.8215L26.1248 16.5116C27.1458 16.9785 29.0273 17.3842 30.9762 17.4048C35.562 17.4048 38.5613 15.1442 38.5748 11.6446ZM49.9654 17.1408H54L50.4752 0.307368H46.7528C45.9133 0.307368 45.2077 0.793684 44.8947 1.54126L38.3472 17.1406H42.9294L43.8383 14.6261H49.4366L49.9654 17.1408ZM45.0949 11.1768L47.3924 4.85537L48.7122 11.1768H45.0949ZM32.3226 21.7743H30.5494V23.4213H32.5327V23.9164H29.9521V19.3474H32.431V19.8425H30.5494V21.2861H32.3224L32.3226 21.7743ZM33.4488 19.1036H34.0462V23.9162H33.4488V19.1036ZM35.5535 22.3842C35.567 23.1912 36.0766 23.5232 36.6808 23.5232C37.109 23.5232 37.3737 23.4486 37.5914 23.3539L37.6998 23.7811C37.4893 23.8758 37.1227 23.9909 36.5993 23.9909C35.5877 23.9909 34.9834 23.32 34.9834 22.3301C34.9834 21.3406 35.567 20.5676 36.5249 20.5676C37.6049 20.5676 37.8833 21.5034 37.8833 22.1065C37.8833 22.2284 37.8764 22.3164 37.8626 22.3844L35.5535 22.3842ZM37.3058 21.9573C37.3127 21.5846 37.1497 20.9947 36.4772 20.9947C35.8659 20.9947 35.6077 21.5438 35.5601 21.9573H37.3058ZM41.1351 23.8011C40.979 23.8758 40.6325 23.9912 40.1912 23.9912C39.1996 23.9912 38.5543 23.32 38.5543 22.3166C38.5543 21.3065 39.2468 20.5678 40.3201 20.5678C40.6732 20.5678 40.9856 20.6556 41.1486 20.744L41.0132 21.1981C40.87 21.1236 40.646 21.0419 40.3201 21.0419C39.566 21.0419 39.1589 21.6046 39.1589 22.2829C39.1589 23.0419 39.6478 23.5097 40.2998 23.5097C40.6394 23.5097 40.8634 23.4284 41.0332 23.3539L41.1351 23.8011ZM42.8117 19.8491V20.6354H43.6672V21.0893H42.8117V22.8587C42.8117 23.2659 42.9273 23.496 43.2599 23.496C43.4227 23.496 43.5181 23.4827 43.6065 23.4552L43.6337 23.9099C43.5181 23.9503 43.3348 23.9909 43.1038 23.9909C42.8252 23.9909 42.6009 23.896 42.4586 23.7404C42.2955 23.5571 42.2276 23.2659 42.2276 22.8794V21.0893H41.718V20.6354H42.2276V20.0253L42.8117 19.8491ZM44.5019 21.6592C44.5019 21.2726 44.4947 20.9406 44.4747 20.6354H44.9978L45.0252 21.2859H45.0451C45.1948 20.8457 45.5612 20.5676 45.9618 20.5676C46.0232 20.5676 46.0709 20.5745 46.1253 20.5811V21.144C46.0641 21.1301 46.0031 21.1301 45.9211 21.1301C45.5005 21.1301 45.2012 21.4419 45.12 21.8897C45.1059 21.9816 45.0991 22.0746 45.0995 22.1676V23.9166H44.5019V21.6592ZM49.7988 22.2486C49.7988 23.4621 48.9495 23.9909 48.1619 23.9909C47.2787 23.9909 46.5862 23.34 46.5862 22.3032C46.5862 21.2116 47.3129 20.5678 48.2163 20.5678C49.1602 20.5678 49.7988 21.2518 49.7988 22.2486ZM47.1973 22.2829C47.1973 23.0015 47.6048 23.544 48.1889 23.544C48.7597 23.544 49.1873 23.008 49.1873 22.2693C49.1873 21.7135 48.9088 21.0149 48.2024 21.0149C47.5031 21.0149 47.1973 21.6661 47.1973 22.2829ZM50.7146 21.5236C50.7146 21.1781 50.7075 20.9067 50.6872 20.6358H51.2171L51.2511 21.1781H51.2646C51.4276 20.8728 51.8079 20.568 52.3513 20.568C52.8061 20.568 53.5127 20.8392 53.5127 21.964V23.9166H52.9151V22.0253C52.9151 21.4968 52.7181 21.0558 52.1545 21.0558C51.7672 21.0558 51.4614 21.3339 51.3532 21.6659C51.3257 21.7406 51.3122 21.8421 51.3122 21.944V23.9166H50.7146V21.5236Z" fill="#1A1F71"/>
</svg>
